# xmcd
#
# Track frame offsets:
#  150
#  34397
#  44310
#  55212
#  65080
#  78154
#  89391
#  111665
#  126738
#  143239
#  157879
#  171484
#
# Disc length: 2609 seconds
#
# Revision: 0
# Processed by: cddbd v1.5.2PL0 Copyright (c) Steve Scherf et al.
# Submitted via: AltoMP3_Maker 3.0
#
DISCID=b30a2f0c
DTITLE=Moving Sidewalks And The American Blues - Rock Masters
DYEAR=1900
DGENRE=
TTITLE0=Joe's Blues
TTITLE1=99th Floor
TTITLE2=What Are You Going To Do
TTITLE3=Need Me
TTITLE4=Every Night A New Surprise
TTITLE5=Life's A Misery
TTITLE6=Fool For Your Stocking
TTITLE7=Love Against The Wall
TTITLE8=All I Saw Was You
TTITLE9=Captain Fire
TTITLE10=Chocolate Ego
TTITLE11=Comin' Back Home
EXTD=
EXTT0=
EXTT1=
EXTT2=
EXTT3=
EXTT4=
EXTT5=
EXTT6=
EXTT7=
EXTT8=
EXTT9=
EXTT10=
EXTT11=
PLAYORDER=
